<?xml version="1.0" encoding="UTF-8" standalone="no"?>
<!-- Created with Inkscape (http://www.inkscape.org/) -->

<svg
   width="210mm"
   height="297mm"
   viewBox="0 0 210 297"
   version="1.1"
   id="svg1"
   inkscape:version="1.3.2 (091e20ef0f, 2023-11-25)"
   sodipodi:docname="logo.svg"
   xmlns:inkscape="http://www.inkscape.org/namespaces/inkscape"
   xmlns:sodipodi="http://sodipodi.sourceforge.net/DTD/sodipodi-0.dtd"
   xmlns="http://www.w3.org/2000/svg"
   xmlns:svg="http://www.w3.org/2000/svg">
  <sodipodi:namedview
     id="namedview1"
     pagecolor="#ffffff"
     bordercolor="#000000"
     borderopacity="0.25"
     inkscape:showpageshadow="2"
     inkscape:pageopacity="0.0"
     inkscape:pagecheckerboard="0"
     inkscape:deskcolor="#d1d1d1"
     inkscape:document-units="mm"
     inkscape:zoom="6.3597549"
     inkscape:cx="320.21674"
     inkscape:cy="411.41523"
     inkscape:window-width="1600"
     inkscape:window-height="828"
     inkscape:window-x="0"
     inkscape:window-y="0"
     inkscape:window-maximized="1"
     inkscape:current-layer="layer1" />
  <defs
     id="defs1" />
  <g
     inkscape:label="Layer 1"
     inkscape:groupmode="layer"
     id="layer1">
    <text
       xml:space="preserve"
       style="font-size:3.175px;fill:#ca0000;stroke:none;stroke-width:0.1;stroke-dasharray:none;fill-opacity:1"
       x="73.01889"
       y="106.07388"
       id="text1"><tspan
         sodipodi:role="line"
         id="tspan1"
         style="font-style:normal;font-variant:normal;font-weight:bold;font-stretch:normal;font-family:'Liberation Sans';-inkscape-font-specification:'Liberation Sans Bold';fill:#ca0000;fill-opacity:1;stroke:none;stroke-width:0.1;stroke-dasharray:none;stroke-opacity:1"
         x="73.01889"
         y="106.07388">UNO TRACKER</tspan></text>
    <path
       style="font-weight:bold;font-size:3.175px;font-family:'Liberation Sans';-inkscape-font-specification:'Liberation Sans Bold';fill:#ca0000;stroke-width:0.1"
       d="m 74.484341,114.69585 q -0.451135,0 -0.69143,-0.22015 -0.238745,-0.22014 -0.238745,-0.62941 v -1.36581 h 0.457336 v 1.33015 q 0,0.2589 0.122473,0.39377 0.124024,0.13333 0.362769,0.13333 0.244946,0 0.376721,-0.13953 0.131775,-0.14107 0.131775,-0.40307 v -1.31465 h 0.457336 v 1.34255 q 0,0.41548 -0.257348,0.64492 -0.255799,0.2279 -0.720887,0.2279 z m 2.714563,-0.031 -0.95188,-1.68207 q 0.02791,0.24495 0.02791,0.39378 v 1.28829 h -0.406177 v -2.18436 h 0.522449 l 0.965832,1.69602 q -0.02791,-0.2341 -0.02791,-0.42633 v -1.26969 h 0.406177 v 2.18436 z m 3.086633,-1.10226 q 0,0.34107 -0.134875,0.59997 -0.134876,0.25889 -0.386023,0.39687 -0.251147,0.13643 -0.586011,0.13643 -0.514697,0 -0.807702,-0.30231 -0.291455,-0.30386 -0.291455,-0.83096 0,-0.52555 0.291455,-0.8201 0.291455,-0.29456 0.810803,-0.29456 0.519348,0 0.810803,0.29766 0.293005,0.29765 0.293005,0.817 z m -0.466638,0 q 0,-0.35346 -0.167431,-0.55345 -0.167432,-0.20154 -0.469739,-0.20154 -0.306958,0 -0.47439,0.19999 -0.167431,0.19844 -0.167431,0.555 0,0.35967 0.170532,0.56741 0.172082,0.20619 0.468188,0.20619 0.306958,0 0.47284,-0.20154 0.167431,-0.20154 0.167431,-0.57206 z m 2.680457,-0.72864 v 1.8309 h -0.457337 v -1.8309 h -0.705383 v -0.35346 h 1.869653 v 0.35346 z m 2.454113,1.8309 -0.506946,-0.82941 h -0.536401 v 0.82941 h -0.457336 v -2.18436 h 1.091406 q 0.390674,0 0.603064,0.16898 0.21239,0.16743 0.21239,0.48214 0,0.22944 -0.130225,0.39688 -0.130224,0.16588 -0.351916,0.21859 l 0.590662,0.91777 z m -0.05426,-1.51464 q 0,-0.3147 -0.403076,-0.3147 h -0.586011 v 0.64492 h 0.598413 q 0.192237,0 0.291455,-0.0868 0.09922,-0.0868 0.09922,-0.2434 z m 2.390552,1.51464 -0.193786,-0.5581 h -0.832508 l -0.193786,0.5581 h -0.457337 l 0.796851,-2.18436 h 0.539502 l 0.79375,2.18436 z m -0.610815,-1.84795 -0.0093,0.0341 q -0.0155,0.0558 -0.03721,0.12712 -0.0217,0.0713 -0.26665,0.78445 h 0.627868 l -0.21549,-0.62787 -0.06666,-0.21084 z m 2.379699,1.51929 q 0.413928,0 0.575159,-0.41548 l 0.398425,0.15038 q -0.128674,0.31626 -0.378271,0.47129 -0.248047,0.15348 -0.595313,0.15348 -0.527099,0 -0.815454,-0.29766 -0.286804,-0.29921 -0.286804,-0.83561 0,-0.53795 0.277502,-0.8263 0.277503,-0.28836 0.804602,-0.28836 0.384473,0 0.626319,0.15503 0.241845,0.15348 0.339514,0.45269 l -0.403076,0.11007 q -0.05116,-0.16433 -0.201538,-0.26045 -0.148828,-0.0977 -0.351917,-0.0977 -0.310058,0 -0.471289,0.19224 -0.15968,0.19223 -0.15968,0.56275 0,0.37672 0.164331,0.57516 0.165881,0.19844 0.47749,0.19844 z m 2.784326,0.32866 -0.784448,-1.00304 -0.269751,0.20619 v 0.79685 h -0.457337 v -2.18436 h 0.457337 v 0.99064 l 0.984436,-0.99064 h 0.533301 l -0.933277,0.92397 1.009241,1.26039 z m 0.781347,0 v -2.18436 h 1.717725 v 0.35346 h -1.260388 v 0.54881 h 1.16582 v 0.35347 h -1.16582 v 0.57515 h 1.32395 v 0.35347 z m 3.618384,0 -0.506945,-0.82941 h -0.536402 v 0.82941 h -0.457336 v -2.18436 h 1.091406 q 0.390674,0 0.603064,0.16898 0.21239,0.16743 0.21239,0.48214 0,0.22944 -0.130224,0.39688 -0.130225,0.16588 -0.351917,0.21859 l 0.590662,0.91777 z m -0.05426,-1.51464 q 0,-0.3147 -0.403076,-0.3147 h -0.586011 v 0.64492 h 0.598413 q 0.192237,0 0.291455,-0.0868 0.09922,-0.0868 0.09922,-0.2434 z"
       id="text1-8"
       aria-label="UNO TRACKER" />
  </g>
</svg>
